<svg width="526" height="28" viewBox="0 0 526 28" fill="none" xmlns="http://www.w3.org/2000/svg">
<g filter="url(#filter0_d_1_193)">
<g clip-path="url(#clip0_1_193)">
<path d="M41.5927 8.48942L35.9726 7.62002L33.4266 2.27945C33.2403 1.90685 32.7435 1.90685 32.5572 2.27945L30.0111 7.65107L24.4221 8.48942C24.0184 8.55152 23.8632 9.07937 24.1737 9.35882L28.2412 13.5505L27.2787 19.419C27.2166 19.8226 27.6202 20.1642 27.9928 19.9158L33.054 17.1523L38.084 19.9158C38.4256 20.1021 38.8603 19.7916 38.7671 19.419L37.8046 13.5505L41.8721 9.35882C42.1205 9.07937 41.9963 8.55152 41.5927 8.48942Z" fill="#52503B"/>
</g>
<g clip-path="url(#clip1_1_193)">
<path d="M81.5927 8.48942L75.9726 7.62002L73.4266 2.27945C73.2403 1.90685 72.7435 1.90685 72.5572 2.27945L70.0111 7.65107L64.4221 8.48942C64.0184 8.55152 63.8632 9.07937 64.1737 9.35882L68.2412 13.5505L67.2787 19.419C67.2166 19.8226 67.6202 20.1642 67.9928 19.9158L73.054 17.1523L78.084 19.9158C78.4256 20.1021 78.8603 19.7916 78.7671 19.419L77.8046 13.5505L81.8721 9.35882C82.1205 9.07937 81.9963 8.55152 81.5927 8.48942Z" fill="#52503B"/>
</g>
<g clip-path="url(#clip2_1_193)">
<path d="M61.5927 8.48942L55.9726 7.62002L53.4266 2.27945C53.2403 1.90685 52.7435 1.90685 52.5572 2.27945L50.0111 7.65107L44.4221 8.48942C44.0184 8.55152 43.8632 9.07937 44.1737 9.35882L48.2412 13.5505L47.2787 19.419C47.2166 19.8226 47.6202 20.1642 47.9928 19.9158L53.054 17.1523L58.084 19.9158C58.4256 20.1021 58.8603 19.7916 58.7671 19.419L57.8046 13.5505L61.8721 9.35882C62.1205 9.07937 61.9963 8.55152 61.5927 8.48942Z" fill="#52503B"/>
</g>
<g clip-path="url(#clip3_1_193)">
<path d="M21.5927 8.48942L15.9726 7.62002L13.4266 2.27945C13.2403 1.90685 12.7435 1.90685 12.5572 2.27945L10.0111 7.65107L4.42209 8.48942C4.01845 8.55152 3.8632 9.07937 4.1737 9.35882L8.24123 13.5505L7.27868 19.419C7.21658 19.8226 7.62023 20.1642 7.99283 19.9158L13.054 17.1523L18.084 19.9158C18.4256 20.1021 18.8603 19.7916 18.7671 19.419L17.8046 13.5505L21.8721 9.35882C22.1205 9.07937 21.9963 8.55152 21.5927 8.48942Z" fill="#52503B"/>
</g>
<g clip-path="url(#clip4_1_193)">
<path d="M101.593 8.48942L95.9726 7.62002L93.4266 2.27945C93.2403 1.90685 92.7435 1.90685 92.5572 2.27945L90.0111 7.65107L84.4221 8.48942C84.0184 8.55152 83.8632 9.07937 84.1737 9.35882L88.2412 13.5505L87.2787 19.419C87.2166 19.8226 87.6202 20.1642 87.9928 19.9158L93.054 17.1523L98.084 19.9158C98.4256 20.1021 98.8603 19.7916 98.7671 19.419L97.8046 13.5505L101.872 9.35882C102.121 9.07937 101.996 8.55152 101.593 8.48942Z" fill="#52503B"/>
</g>
</g>
<defs>
<filter id="filter0_d_1_193" x="0" y="0" width="530" height="28.375" filterUnits="userSpaceOnUse" color-interpolation-filters="sRGB">
<feFlood flood-opacity="0" result="BackgroundImageFix"/>
<feColorMatrix in="SourceAlpha" type="matrix" values="0 0 0 0 0 0 0 0 0 0 0 0 0 0 0 0 0 0 127 0" result="hardAlpha"/>
<feOffset dy="4"/>
<feGaussianBlur stdDeviation="2"/>
<feComposite in2="hardAlpha" operator="out"/>
<feColorMatrix type="matrix" values="0 0 0 0 0 0 0 0 0 0 0 0 0 0 0 0 0 0 0.25 0"/>
<feBlend mode="normal" in2="BackgroundImageFix" result="effect1_dropShadow_1_193"/>
<feBlend mode="normal" in="SourceGraphic" in2="effect1_dropShadow_1_193" result="shape"/>
</filter>
<clipPath id="clip0_1_193">
<rect width="18" height="18" fill="white" transform="translate(24 2)"/>
</clipPath>
<clipPath id="clip1_1_193">
<rect width="18" height="18" fill="white" transform="translate(64 2)"/>
</clipPath>
<clipPath id="clip2_1_193">
<rect width="18" height="18" fill="white" transform="translate(44 2)"/>
</clipPath>
<clipPath id="clip3_1_193">
<rect width="18" height="18" fill="white" transform="translate(4 2)"/>
</clipPath>
<clipPath id="clip4_1_193">
<rect width="18" height="18" fill="white" transform="translate(84 2)"/>
</clipPath>
</defs>
</svg>
